<svg id="Capa_1" enable-background="new 0 0 512 512" height="512" viewBox="0 0 512 512" width="512" xmlns="http://www.w3.org/2000/svg"><g><g><g><path d="m381 472h-250c-8.284 0-15-6.716-15-15v-134.506c0-2.75.756-5.446 2.185-7.795l79.267-130.31 25.63 15.591-77.082 126.718v115.302h220v-115.302l-77.081-126.718 25.63-15.591 79.267 130.31c1.429 2.349 2.185 5.046 2.185 7.795v134.506c-.001 8.284-6.717 15-15.001 15z" fill="#5d6787"/></g></g><path d="m314.549 184.389-25.63 15.591 77.081 126.718v115.302h-110v30h125c8.284 0 15-6.716 15-15v-134.506c0-2.75-.756-5.446-2.185-7.795z" fill="#445064"/><g><path d="m346 220h-180c-8.284 0-15-6.716-15-15 0-57.897 47.103-105 105-105s105 47.103 105 105c0 8.284-6.716 15-15 15z" fill="#ff6ec1"/><path d="m346 220c8.284 0 15-6.716 15-15 0-57.897-47.103-105-105-105v120z" fill="#ff46a0"/><path d="m256 130c-35.841 0-65-29.159-65-65s29.159-65 65-65 65 29.159 65 65-29.159 65-65 65z" fill="#ffd5b6"/><path d="m321 65c0-35.841-29.159-65-65-65v130c35.841 0 65-29.159 65-65z" fill="#ffc896"/></g><g><path d="m195 512h-180c-8.284 0-15-6.716-15-15 0-57.897 47.103-105 105-105s105 47.103 105 105c0 8.284-6.716 15-15 15z" fill="#49acff"/><path d="m195 512c8.284 0 15-6.716 15-15 0-57.897-47.103-105-105-105v120z" fill="#1790e7"/><path d="m105 422c-35.841 0-65-29.159-65-65s29.159-65 65-65 65 29.159 65 65-29.159 65-65 65z" fill="#ffd5b6"/><path d="m170 357c0-35.841-29.159-65-65-65v130c35.841 0 65-29.159 65-65z" fill="#ffc896"/></g><g><path d="m497 512h-180c-8.284 0-15-6.716-15-15 0-57.897 47.103-105 105-105s105 47.103 105 105c0 8.284-6.716 15-15 15z" fill="#aadc1e"/><path d="m497 512c8.284 0 15-6.716 15-15 0-57.897-47.103-105-105-105v120z" fill="#8cc314"/><path d="m407 422c-35.841 0-65-29.159-65-65s29.159-65 65-65 65 29.159 65 65-29.159 65-65 65z" fill="#ffd5b6"/><path d="m472 357c0-35.841-29.159-65-65-65v130c35.841 0 65-29.159 65-65z" fill="#ffc896"/></g></g></svg>