<svg xmlns="http://www.w3.org/2000/svg" viewBox="0 0 841.9 595.3">
    <symbol id="icon-arrow" viewBox="0 0 512 512">
        <path d="M484.14,226.886L306.46,49.202c-5.072-5.072-11.832-7.856-19.04-7.856c-7.216,0-13.972,2.788-19.044,7.856l-16.132,16.136
			c-5.068,5.064-7.86,11.828-7.86,19.04c0,7.208,2.792,14.2,7.86,19.264L355.9,207.526H26.58C11.732,207.526,0,219.15,0,234.002
			v22.812c0,14.852,11.732,27.648,26.58,27.648h330.496L252.248,388.926c-5.068,5.072-7.86,11.652-7.86,18.864
			c0,7.204,2.792,13.88,7.86,18.948l16.132,16.084c5.072,5.072,11.828,7.836,19.044,7.836c7.208,0,13.968-2.8,19.04-7.872
			l177.68-177.68c5.084-5.088,7.88-11.88,7.86-19.1C492.02,238.762,489.228,231.966,484.14,226.886z"/>
    </symbol>
    <symbol id="icon-close" viewBox="0 0 512 512">
        <path d="M228.929,205.01L404.596,29.343c6.78-6.548,6.968-17.352,0.42-24.132c-6.548-6.78-17.352-6.968-24.132-0.42
			c-0.142,0.137-0.282,0.277-0.42,0.42L204.796,180.878L29.129,5.21c-6.78-6.548-17.584-6.36-24.132,0.42
			c-6.388,6.614-6.388,17.099,0,23.713L180.664,205.01L4.997,380.677c-6.663,6.664-6.663,17.468,0,24.132
			c6.664,6.662,17.468,6.662,24.132,0l175.667-175.667l175.667,175.667c6.78,6.548,17.584,6.36,24.132-0.42
			c6.387-6.614,6.387-17.099,0-23.712L228.929,205.01z"/>
    </symbol>
</svg>